<?xml version="1.0" standalone="no"?>
<!DOCTYPE svg PUBLIC "-//W3C//DTD SVG 20010904//EN"
 "http://www.w3.org/TR/2001/REC-SVG-20010904/DTD/svg10.dtd">
<svg version="1.0" xmlns="http://www.w3.org/2000/svg"
 width="600.000000pt" height="514.000000pt" viewBox="0 0 600.000000 514.000000"
 preserveAspectRatio="xMidYMid meet">
<metadata>
Created by potrace 1.10, written by Peter Selinger 2001-2011
</metadata>
<g transform="translate(0.000000,514.000000) scale(0.100000,-0.100000)"
fill="#000000" stroke="none">
<path d="M1530 5110 c-121 -33 -190 -64 -276 -121 -65 -44 -168 -142 -219
-209 -50 -65 -120 -200 -135 -263 l-12 -45 -61 -6 c-327 -36 -592 -214 -730
-491 -53 -107 -78 -198 -83 -300 l-3 -90 15 65 c55 241 90 329 180 447 145
190 394 322 630 334 51 3 70 20 90 83 79 242 285 452 529 539 87 31 250 59
322 56 109 -5 321 -63 372 -101 13 -10 28 -18 33 -18 6 0 46 -27 89 -60 43
-33 83 -60 87 -60 5 0 52 24 103 53 377 212 835 128 1107 -203 94 -116 182
-332 182 -452 0 -52 31 -81 110 -103 73 -21 190 -79 253 -125 71 -52 166 -150
212 -221 99 -149 139 -283 139 -474 1 -202 -42 -339 -160 -507 l-56 -80 21
-51 c33 -83 51 -165 57 -267 21 -319 -117 -602 -379 -779 -236 -160 -555 -187
-827 -71 -40 16 -75 30 -79 30 -3 0 -33 -25 -66 -56 -120 -112 -248 -184 -401
-225 -62 -17 -108 -22 -209 -22 -161 0 -247 21 -394 95 -88 44 -117 65 -195
142 -50 50 -107 111 -127 136 l-35 44 -65 -21 c-278 -91 -600 -31 -822 152
-138 114 -242 278 -288 455 -29 110 -31 311 -5 409 10 35 15 74 12 85 -3 12
-34 43 -68 68 -188 139 -299 328 -342 582 -9 49 -19 93 -24 98 -15 15 7 -178
28 -247 60 -190 178 -355 337 -469 l50 -36 -19 -67 c-30 -101 -29 -308 1 -423
90 -345 353 -595 700 -665 112 -23 305 -16 406 15 39 12 77 23 85 25 9 3 34
-21 65 -64 106 -145 274 -261 460 -317 80 -24 105 -27 235 -27 118 0 160 4
225 22 150 40 280 113 395 221 l65 61 50 -24 c119 -57 213 -77 369 -78 235 -1
429 73 608 231 97 85 195 239 244 384 62 182 55 422 -17 603 l-21 52 35 43
c77 95 128 202 163 338 27 107 25 305 -4 417 -84 324 -332 573 -649 653 -42
11 -43 12 -43 53 0 67 -37 203 -80 294 -122 261 -343 436 -630 499 -84 19
-267 19 -350 0 -116 -26 -231 -73 -322 -134 l-39 -25 -27 25 c-80 75 -253 164
-375 192 -97 23 -339 20 -427 -4z"/>
<path d="M1431 3713 c-5 -10 -9 -160 -9 -338 -1 -374 -1 -384 -12 -335 -4 19
-15 80 -24 135 -10 55 -19 111 -22 125 -35 198 -54 314 -54 333 0 13 -9 36
-21 51 -16 21 -29 26 -64 26 -26 0 -50 -7 -63 -17 -23 -21 -46 -120 -67 -293
-3 -25 -8 -55 -10 -67 -5 -21 -40 -220 -51 -288 -26 -161 -25 -165 41 -165 61
0 75 7 75 41 0 16 4 29 9 29 5 0 7 8 4 19 -8 30 19 47 69 43 26 -2 45 -9 45
-15 -2 -22 16 -92 26 -104 12 -16 103 -17 112 -3 5 8 11 7 21 -1 9 -8 35 -10
74 -6 33 3 63 1 66 -4 3 -5 25 -9 48 -9 37 0 47 5 68 33 14 17 33 56 42 85 10
29 23 51 28 50 6 -2 20 -27 32 -56 11 -29 34 -66 49 -82 25 -26 36 -30 82 -30
42 0 60 5 83 25 40 33 73 105 87 190 11 61 13 65 15 30 7 -113 20 -164 57
-212 20 -27 31 -33 62 -33 23 0 44 6 51 15 9 11 16 13 24 5 14 -14 99 -13 114
2 9 9 12 73 12 229 l0 216 28 -5 c15 -3 21 -7 15 -9 -7 -3 -13 -11 -13 -19 0
-8 6 -14 13 -14 7 0 8 -3 2 -8 -6 -4 -11 -64 -11 -137 -1 -76 1 -122 6 -110 7
17 9 15 9 -10 1 -50 19 -96 47 -121 23 -22 34 -25 88 -22 l61 3 3 79 c3 84 -1
94 -38 101 -12 2 -25 6 -27 9 -3 2 -6 61 -7 130 l-2 125 41 3 40 3 3 73 c3 83
-6 102 -49 102 -33 0 -37 11 -41 100 l-3 55 -50 3 c-62 4 -75 -11 -75 -88 0
-44 -5 -61 -20 -75 -13 -12 -24 -15 -32 -8 -20 15 -93 16 -106 1 -6 -8 -13
-89 -16 -207 -5 -145 -10 -198 -21 -214 -22 -31 -24 -14 -27 211 -3 220 -4
222 -60 222 -15 0 -39 -5 -53 -12 l-25 -11 -1 -161 -2 -161 -8 98 c-7 75 -16
111 -37 155 -78 158 -231 129 -285 -53 -15 -55 -17 -54 -42 34 -30 101 -80
138 -149 111 l-26 -10 0 99 c0 55 -3 106 -6 115 -9 24 -110 22 -123 -1z m107
-153 c-2 -83 0 -150 5 -150 4 0 7 6 7 14 0 25 50 76 75 76 32 0 71 -50 92
-118 25 -79 25 -293 0 -374 -20 -67 -60 -118 -91 -118 -28 0 -64 33 -72 65
-10 40 -23 29 -17 -14 l5 -39 -46 0 -46 0 0 404 0 404 46 0 45 0 -3 -150z
m-229 -72 c55 -327 91 -532 97 -561 6 -28 6 -28 -43 -25 l-48 3 -10 70 -10 70
-72 1 -73 0 -6 -35 c-20 -113 -15 -106 -68 -109 -47 -3 -48 -2 -42 20 3 13 34
188 68 391 l63 367 55 0 56 0 33 -192z m1271 76 l0 -87 45 5 45 6 0 -69 0 -69
-45 0 -45 0 0 -136 c0 -74 5 -144 10 -155 7 -12 21 -19 40 -19 l30 0 0 -70 0
-70 -37 0 c-52 0 -85 19 -105 60 -15 29 -18 63 -18 213 l0 177 -25 0 c-24 0
-25 2 -25 70 l0 70 26 -6 27 -7 -5 87 -4 86 43 0 43 0 0 -86z m-602 -78 c73
-38 117 -220 93 -383 -24 -170 -98 -246 -191 -198 -78 41 -119 223 -90 404 25
148 102 221 188 177z m242 -194 c0 -208 11 -267 47 -260 39 7 48 53 51 259 l3
195 42 -2 42 -2 0 -288 0 -289 -44 -3 -43 -3 4 40 c4 50 -3 52 -25 6 -37 -77
-107 -68 -139 17 -14 39 -17 85 -18 280 -1 128 -1 235 -1 238 1 3 19 5 41 5
l40 0 0 -193z m-450 -227 c0 -8 -4 -15 -10 -15 -5 0 -7 7 -4 15 4 8 8 15 10
15 2 0 4 -7 4 -15z"/>
<path d="M1554 3325 c-17 -41 -19 -207 -3 -254 27 -77 83 -50 95 47 8 68 0
179 -17 215 -18 41 -56 37 -75 -8z m71 -80 c8 -62 -1 -140 -19 -174 l-13 -24
-12 21 c-17 32 -18 227 -1 247 13 16 15 16 26 0 7 -10 16 -41 19 -70z"/>
<path d="M1210 3455 c0 -35 -21 -178 -35 -242 -5 -22 -2 -23 46 -23 48 0 51 1
46 23 -3 12 -14 76 -23 142 -18 123 -34 170 -34 100z m23 -187 c5 -31 2 -40
-14 -49 -21 -11 -21 -16 -4 67 7 33 11 29 18 -18z"/>
<path d="M1901 3345 c-48 -62 -35 -300 17 -320 48 -18 84 118 64 240 -10 61
-32 105 -53 105 -4 0 -17 -11 -28 -25z m55 -144 c1 -80 -2 -112 -13 -130 l-16
-24 -13 24 c-16 30 -19 193 -3 237 10 29 12 30 27 15 14 -13 17 -38 18 -122z"/>
<path d="M2892 3694 l-22 -15 0 -380 c0 -243 4 -387 10 -400 8 -15 21 -19 60
-19 28 0 52 5 57 13 4 6 10 73 13 147 4 115 6 127 13 85 13 -79 24 -95 67 -95
21 0 42 6 48 13 6 6 17 44 25 82 l15 70 1 -138 c1 -76 6 -147 11 -158 8 -15
21 -19 60 -19 39 0 52 4 60 19 6 13 10 156 10 395 0 363 -1 377 -20 396 -14
14 -33 20 -63 20 -70 0 -82 -16 -102 -130 -10 -55 -21 -100 -25 -100 -4 0 -5
-11 -3 -24 3 -13 0 -27 -6 -30 -12 -8 -24 35 -42 154 -16 104 -36 130 -101
130 -24 0 -54 -7 -66 -16z m128 -31 c0 -10 17 -103 37 -208 29 -148 39 -183
45 -160 4 17 22 109 40 205 l34 175 57 0 57 0 1 -385 0 -385 -41 0 -41 0 0
285 0 285 -42 -210 -42 -210 -30 0 -30 0 -33 175 c-18 96 -37 189 -42 205 -5
18 -8 -80 -8 -250 l0 -280 -41 0 -42 0 -2 388 -2 387 63 0 c52 0 62 -3 62 -17z"/>
<path d="M3426 3487 c-18 -18 -44 -55 -57 -82 -22 -46 -24 -62 -24 -210 0 -88
4 -169 9 -180 5 -11 10 -22 11 -25 11 -31 24 -51 56 -82 34 -35 42 -38 94 -38
59 0 85 9 123 43 19 18 22 31 22 93 0 93 -14 107 -66 68 -42 -33 -89 -40 -100
-15 -24 53 -1 68 92 58 74 -8 84 4 84 97 0 39 -7 99 -15 131 -33 126 -68 168
-145 171 -44 2 -54 -1 -84 -29z m148 -22 c44 -44 65 -110 73 -233 l6 -93 -101
3 c-101 3 -102 3 -102 -20 0 -38 28 -91 53 -103 20 -9 32 -7 62 7 20 9 42 25
48 36 21 32 27 20 27 -51 0 -69 0 -70 -36 -92 -141 -87 -244 30 -244 276 0
140 36 251 94 286 47 29 80 24 120 -16z"/>
<path d="M3488 3369 c-10 -5 -22 -26 -28 -47 -18 -65 -16 -67 46 -64 l56 4 -5
35 c-6 36 -32 83 -45 83 -4 0 -15 -5 -24 -11z m38 -66 c-3 -19 -33 -26 -42
-11 -4 5 0 21 7 35 12 22 14 23 25 8 7 -9 11 -23 10 -32z"/>
</g>
</svg>
